<?xml version="1.0" standalone="no"?>
<!DOCTYPE svg PUBLIC "-//W3C//DTD SVG 20010904//EN"
 "http://www.w3.org/TR/2001/REC-SVG-20010904/DTD/svg10.dtd">
<svg version="1.0" xmlns="http://www.w3.org/2000/svg"
 width="295.000000pt" height="283.000000pt" viewBox="0 0 295.000000 283.000000"
 preserveAspectRatio="xMidYMid meet">

<g transform="translate(0.000000,283.000000) scale(0.100000,-0.100000)"
fill="#000000" stroke="none">
<path d="M10 1420 l0 -1410 680 0 c645 0 680 1 671 18 -6 9 -61 86 -123 171
-100 136 -118 156 -153 167 -411 130 -425 135 -436 156 -9 16 -10 85 -5 250
l7 228 -143 197 c-79 109 -147 204 -152 210 -10 18 2 36 151 240 l133 182 0
235 c0 227 6 286 31 286 7 0 111 32 231 71 l219 72 88 116 c48 64 104 140 124
169 l37 52 -680 0 -680 0 0 -1410z"/>
<path d="M1722 2811 c26 -11 80 -29 118 -40 l71 -22 114 36 c63 20 115 38 115
40 0 3 -105 5 -232 5 l-233 -1 47 -18z"/>
<path d="M2480 2788 c17 -24 70 -96 117 -160 46 -64 90 -121 96 -127 13 -10
227 -81 246 -81 8 0 11 52 9 203 l-3 202 -248 3 -249 2 32 -42z"/>
<path d="M1367 2708 c-46 -62 -92 -126 -102 -142 l-19 -28 35 7 c18 4 57 16
84 26 28 11 60 19 72 19 20 0 72 -54 125 -130 16 -24 17 -22 17 77 l1 102 53
19 c28 11 70 25 92 32 22 7 44 16 48 20 6 5 -294 110 -316 110 -3 0 -44 -51
-90 -112z"/>
<path d="M2192 2768 c-85 -27 -151 -52 -147 -56 3 -4 48 -21 98 -38 l92 -31 5
-102 5 -102 54 75 c62 88 62 88 181 50 45 -14 84 -24 86 -21 2 2 -28 49 -68
104 -40 54 -84 116 -98 136 -14 20 -32 36 -40 36 -8 -1 -84 -23 -168 -51z"/>
<path d="M1765 2631 l-110 -36 -3 -123 c-2 -79 1 -130 9 -145 18 -34 242 -337
250 -337 8 0 236 311 255 348 10 21 12 53 6 141 l-7 113 -115 39 c-63 21 -128
38 -145 38 -16 0 -79 -17 -140 -38z"/>
<path d="M1400 2509 c-14 -4 -71 -22 -128 -40 l-103 -32 -80 -109 c-46 -64
-77 -114 -73 -121 4 -7 38 -53 76 -103 66 -90 69 -93 140 -118 70 -25 278 -91
326 -103 l22 -5 0 219 0 220 -71 94 c-85 114 -79 108 -109 98z"/>
<path d="M2338 2448 c-109 -148 -98 -108 -98 -352 0 -119 3 -216 8 -216 18 0
389 123 408 135 11 7 51 55 87 105 50 69 64 97 58 109 -18 32 -143 196 -160
207 -13 9 -107 42 -228 78 -18 6 -30 -4 -75 -66z"/>
<path d="M878 2343 l-168 -54 0 -175 c0 -102 4 -174 9 -172 5 2 33 37 63 78
32 45 62 76 74 78 11 2 56 -8 99 -22 44 -14 80 -24 82 -23 1 2 -20 34 -47 71
-28 38 -50 80 -50 93 0 14 24 56 56 99 31 41 55 76 53 78 -2 2 -79 -21 -171
-51z"/>
<path d="M2770 2392 c0 -3 25 -38 55 -77 33 -43 55 -82 55 -97 0 -15 -21 -55
-50 -94 -27 -37 -48 -69 -46 -71 1 -2 38 9 82 25 l79 28 3 109 c1 61 -1 115
-5 120 -9 12 -173 66 -173 57z"/>
<path d="M1652 2029 l3 -181 60 -19 c33 -10 62 -19 65 -19 9 0 80 98 80 110 0
10 -199 290 -206 290 -3 0 -3 -82 -2 -181z"/>
<path d="M2140 2178 c-13 -18 -61 -83 -107 -145 l-82 -111 30 -39 c17 -21 37
-46 44 -56 13 -18 15 -18 72 -1 32 10 61 21 66 24 4 4 6 86 5 184 l-3 178 -25
-34z"/>
<path d="M792 1918 l-83 -112 3 -135 3 -134 119 -40 119 -40 161 53 c89 28
182 58 209 67 26 8 47 18 47 22 0 11 -238 334 -257 348 -13 10 -96 39 -219 77
-17 5 -33 -11 -102 -106z"/>
<path d="M2835 1995 c-55 -18 -108 -36 -117 -40 -10 -4 -50 -52 -90 -107 -40
-55 -96 -132 -125 -171 -29 -40 -52 -75 -53 -79 0 -4 19 -12 43 -19 23 -6 116
-35 206 -65 159 -53 166 -54 205 -41 l41 14 3 263 c1 145 -1 267 -5 271 -5 4
-53 -8 -108 -26z"/>
<path d="M1240 1905 c0 -3 31 -47 68 -98 37 -51 83 -113 102 -139 18 -27 36
-48 40 -48 3 0 34 9 68 21 l63 21 -3 71 -3 70 -140 47 c-157 52 -195 63 -195
55z"/>
<path d="M2405 1857 l-160 -53 -3 -71 -3 -71 66 -22 c37 -12 70 -18 75 -14 9
10 182 253 194 272 10 17 10 17 -169 -41z"/>
<path d="M1863 1799 c-49 -68 -64 -71 -156 -40 l-57 20 0 -78 c0 -51 -4 -82
-12 -88 -7 -5 -40 -18 -73 -28 -81 -24 -79 -22 -52 -58 80 -108 80 -105 22
-179 -19 -23 -35 -48 -35 -54 0 -6 28 -19 61 -29 84 -26 89 -33 89 -121 0 -41
4 -74 8 -74 5 0 35 9 67 20 32 11 66 20 76 20 10 0 36 -26 61 -60 23 -33 46
-60 49 -60 3 0 25 27 48 60 24 34 50 60 60 60 9 0 45 -9 80 -21 34 -12 64 -19
66 -17 2 2 6 37 9 78 2 41 5 78 5 81 1 4 33 17 71 29 39 12 70 27 70 32 0 5
-18 35 -40 65 -22 31 -40 60 -40 64 0 4 20 37 45 74 l45 65 -26 10 c-14 6 -46
15 -70 21 -25 6 -49 19 -53 28 -5 9 -9 47 -9 84 0 38 -2 71 -5 73 -2 2 -30 -5
-62 -16 -88 -30 -99 -28 -144 34 -23 30 -44 57 -48 59 -5 2 -27 -22 -50 -54z"/>
<path d="M534 1563 l-102 -141 42 -59 c81 -117 161 -222 169 -223 5 0 8 26 7
58 -1 31 -2 80 -1 109 l1 52 88 27 c48 16 90 31 95 34 4 4 -33 18 -82 33 -49
15 -93 33 -98 39 -4 7 -10 58 -13 112 l-5 100 -101 -141z"/>
<path d="M1232 1477 c-84 -28 -149 -54 -145 -57 5 -4 74 -28 156 -54 81 -26
154 -49 161 -52 9 -3 30 15 56 51 l42 56 -38 55 c-26 37 -44 54 -58 53 -12 0
-90 -24 -174 -52z"/>
<path d="M2355 1476 l-37 -54 42 -56 c23 -31 44 -56 46 -56 1 0 33 11 71 24
37 13 109 36 158 50 50 15 97 29 105 32 15 6 -299 114 -330 114 -10 0 -34 -23
-55 -54z"/>
<path d="M823 1343 l-113 -36 0 -132 0 -131 69 -100 c39 -56 77 -107 86 -114
14 -12 32 -9 123 20 59 19 113 39 121 45 29 21 268 352 260 359 -2 2 -40 15
-84 29 -44 14 -131 41 -193 61 -63 20 -123 36 -135 35 -12 0 -73 -17 -134 -36z"/>
<path d="M2650 1320 c-102 -34 -188 -64 -193 -69 -6 -6 201 -303 241 -343 26
-26 234 -90 244 -75 9 14 6 522 -3 531 -4 4 -28 9 -55 11 -41 5 -80 -5 -234
-55z"/>
<path d="M1366 1116 c-45 -61 -93 -126 -106 -145 l-24 -34 30 7 c16 4 93 27
172 52 l142 45 0 72 0 73 -66 21 -66 20 -82 -111z"/>
<path d="M2288 1201 l-48 -16 0 -71 0 -71 159 -51 c87 -29 163 -52 170 -52 14
0 0 23 -107 168 -90 123 -89 122 -174 93z"/>
<path d="M1703 1012 l-53 -15 0 -179 c0 -106 4 -177 9 -174 22 14 203 277 198
289 -14 34 -69 97 -85 96 -9 -1 -41 -8 -69 -17z"/>
<path d="M1996 981 c-20 -27 -36 -51 -36 -54 0 -10 202 -287 208 -287 4 0 6
80 4 178 l-3 178 -55 17 c-30 9 -61 17 -69 17 -7 0 -29 -22 -49 -49z"/>
<path d="M1363 902 c-111 -37 -203 -70 -205 -72 -2 -3 -26 -34 -54 -70 -27
-36 -60 -80 -73 -98 l-23 -33 84 -112 85 -112 116 -38 c65 -21 124 -37 132
-35 8 2 46 48 85 102 l70 100 0 218 c0 120 -3 218 -7 218 -5 -1 -99 -31 -210
-68z"/>
<path d="M2240 752 l0 -221 75 -100 c41 -56 78 -101 81 -101 17 0 241 74 252
83 7 6 47 57 88 114 l76 103 -76 103 c-86 116 -59 101 -336 187 -69 21 -133
42 -142 45 -17 7 -18 -7 -18 -213z"/>
<path d="M710 736 c0 -121 4 -177 12 -182 17 -10 322 -103 326 -99 2 2 -21 36
-52 77 -31 40 -56 83 -56 95 0 13 15 44 34 70 18 27 41 60 50 74 l16 26 -67
-23 c-38 -13 -85 -24 -105 -24 -35 0 -40 4 -93 80 -31 44 -58 80 -61 80 -2 0
-4 -78 -4 -174z"/>
<path d="M1778 683 l-128 -175 0 -127 0 -127 132 -42 132 -43 128 42 128 43 1
85 c3 158 3 160 -36 218 -53 79 -199 276 -216 289 -11 10 -37 -20 -141 -163z"/>
<path d="M2790 782 c0 -5 20 -35 45 -66 28 -36 45 -69 45 -85 0 -17 -21 -55
-54 -101 -30 -41 -51 -76 -48 -77 4 -2 43 10 87 26 l80 28 0 117 0 118 -69 24
c-76 26 -86 28 -86 16z"/>
<path d="M2813 392 c-62 -21 -116 -42 -122 -47 -11 -12 -224 -304 -235 -322
-6 -10 46 -13 243 -13 l251 0 0 210 c0 162 -3 210 -12 209 -7 0 -63 -17 -125
-37z"/>
<path d="M1522 333 c-29 -39 -59 -74 -68 -77 -8 -3 -56 8 -107 24 -50 16 -93
28 -95 26 -2 -2 43 -68 99 -145 78 -109 105 -141 118 -136 9 4 75 26 147 49
182 60 181 59 98 86 -38 12 -83 29 -101 37 l-32 15 -3 96 -3 96 -53 -71z"/>
<path d="M2238 303 l-3 -98 -80 -29 c-44 -15 -89 -32 -100 -36 -14 -5 26 -22
148 -63 l167 -55 101 140 c55 76 99 141 97 143 -1 2 -36 -8 -77 -21 -120 -39
-132 -36 -192 46 -28 39 -53 70 -55 70 -2 0 -5 -44 -6 -97z"/>
<path d="M1790 58 c-69 -21 -126 -41 -129 -44 -2 -2 112 -4 255 -3 l259 0
-105 35 c-58 19 -117 39 -131 43 -19 6 -57 -2 -149 -31z"/>
</g>
</svg>
